<mxfile host="drawio-plugin" modified="2021-05-07T07:44:02.390Z" agent="5.0 (Macintosh; Intel Mac OS X 10_16_0) AppleWebKit/537.36 (KHTML, like Gecko) Chrome/84.0.4147.105 Safari/537.36" version="13.7.9" etag="P3R6BMkUfrx2fPzL66n6" type="embed"><diagram id="iKeTGlxiigHIrdlUOWca" name="DatabaseDiagram"><mxGraphModel dx="612" dy="557" grid="1" gridSize="10" guides="1" tooltips="1" connect="1" arrows="1" fold="1" page="1" pageScale="1" pageWidth="850" pageHeight="1100" math="0" shadow="0"><root><mxCell id="0"/><mxCell id="1" parent="0"/><mxCell id="2" value="Payment" style="shape=table;startSize=30;container=1;collapsible=1;childLayout=tableLayout;fixedRows=1;rowLines=0;fontStyle=1;align=center;resizeLast=1;" vertex="1" parent="1"><mxGeometry x="600" y="390" width="250" height="205" as="geometry"/></mxCell><mxCell id="3" value="" style="shape=partialRectangle;collapsible=0;dropTarget=0;pointerEvents=0;fillColor=none;points=[[0,0.5],[1,0.5]];portConstraint=eastwest;top=0;left=0;right=0;bottom=1;" vertex="1" parent="2"><mxGeometry y="30" width="250" height="30" as="geometry"/></mxCell><mxCell id="4" value="PK" style="shape=partialRectangle;overflow=hidden;connectable=0;fillColor=none;top=0;left=0;bottom=0;right=0;fontStyle=1;" vertex="1" parent="3"><mxGeometry width="30" height="30" as="geometry"/></mxCell><mxCell id="5" value="PaymentID int NOT NULL " style="shape=partialRectangle;overflow=hidden;connectable=0;fillColor=none;top=0;left=0;bottom=0;right=0;align=left;spacingLeft=6;fontStyle=5;" vertex="1" parent="3"><mxGeometry x="30" width="220" height="30" as="geometry"/></mxCell><mxCell id="6" value="" style="shape=partialRectangle;collapsible=0;dropTarget=0;pointerEvents=0;fillColor=none;points=[[0,0.5],[1,0.5]];portConstraint=eastwest;top=0;left=0;right=0;bottom=0;" vertex="1" parent="2"><mxGeometry y="60" width="250" height="125" as="geometry"/></mxCell><mxCell id="7" value="FK1&#10;FK2&#10;FK3&#10;FK4&#10;FK5&#10;FK6&#10;FK7&#10;&#10;" style="shape=partialRectangle;overflow=hidden;connectable=0;fillColor=none;top=0;left=0;bottom=0;right=0;" vertex="1" parent="6"><mxGeometry width="30" height="125" as="geometry"/></mxCell><mxCell id="8" value="OrderID int&#10;BankID int &#10;DiscountID int&#10;DepositID int&#10;RemainingID int&#10;InsuranceID int&#10;InvoiceID int&#10;PaymentOvertime date&#10;PaymentCancelDate date" style="shape=partialRectangle;overflow=hidden;connectable=0;fillColor=none;top=0;left=0;bottom=0;right=0;align=left;spacingLeft=6;" vertex="1" parent="6"><mxGeometry x="30" width="220" height="125" as="geometry"/></mxCell><mxCell id="9" value="Client" style="shape=table;startSize=30;container=1;collapsible=1;childLayout=tableLayout;fixedRows=1;rowLines=0;fontStyle=1;align=center;resizeLast=1;" vertex="1" parent="1"><mxGeometry x="80" y="80" width="290" height="220" as="geometry"/></mxCell><mxCell id="10" value="" style="shape=partialRectangle;collapsible=0;dropTarget=0;pointerEvents=0;fillColor=none;points=[[0,0.5],[1,0.5]];portConstraint=eastwest;top=0;left=0;right=0;bottom=1;" vertex="1" parent="9"><mxGeometry y="30" width="290" height="30" as="geometry"/></mxCell><mxCell id="11" value="PK" style="shape=partialRectangle;overflow=hidden;connectable=0;fillColor=none;top=0;left=0;bottom=0;right=0;fontStyle=1;" vertex="1" parent="10"><mxGeometry width="30" height="30" as="geometry"/></mxCell><mxCell id="12" value="ClientID int NOT NULL " style="shape=partialRectangle;overflow=hidden;connectable=0;fillColor=none;top=0;left=0;bottom=0;right=0;align=left;spacingLeft=6;fontStyle=5;" vertex="1" parent="10"><mxGeometry x="30" width="260" height="30" as="geometry"/></mxCell><mxCell id="13" value="" style="shape=partialRectangle;collapsible=0;dropTarget=0;pointerEvents=0;fillColor=none;points=[[0,0.5],[1,0.5]];portConstraint=eastwest;top=0;left=0;right=0;bottom=0;" vertex="1" parent="9"><mxGeometry y="60" width="290" height="140" as="geometry"/></mxCell><mxCell id="14" value="" style="shape=partialRectangle;overflow=hidden;connectable=0;fillColor=none;top=0;left=0;bottom=0;right=0;" vertex="1" parent="13"><mxGeometry width="30" height="140" as="geometry"/></mxCell><mxCell id="15" value="ClientName varchar(50) NOT NULL&#10;Address varchar(80) NOT Null&#10;EmailAddress varchar(30) not null&#10;DriveLicenseNo int&#10;Co-DriverName&#10;Co-DriverLicenseNo&#10;DriverFullDrivingLicenseStatue varchar(10)&#10;CO-DriverFullDrivingLicenseStatue varchar(10)&#10;" style="shape=partialRectangle;overflow=hidden;connectable=0;fillColor=none;top=0;left=0;bottom=0;right=0;align=left;spacingLeft=6;" vertex="1" parent="13"><mxGeometry x="30" width="260" height="140" as="geometry"/></mxCell><mxCell id="16" value="PriceCategory" style="shape=table;startSize=50;container=1;collapsible=1;childLayout=tableLayout;fixedRows=1;rowLines=0;fontStyle=1;align=center;resizeLast=1;" vertex="1" parent="1"><mxGeometry x="1360" y="350" width="250" height="145" as="geometry"/></mxCell><mxCell id="17" value="" style="shape=partialRectangle;collapsible=0;dropTarget=0;pointerEvents=0;fillColor=none;points=[[0,0.5],[1,0.5]];portConstraint=eastwest;top=0;left=0;right=0;bottom=1;" vertex="1" parent="16"><mxGeometry y="50" width="250" height="30" as="geometry"/></mxCell><mxCell id="18" value="PK" style="shape=partialRectangle;overflow=hidden;connectable=0;fillColor=none;top=0;left=0;bottom=0;right=0;fontStyle=1;" vertex="1" parent="17"><mxGeometry width="30" height="30" as="geometry"/></mxCell><mxCell id="19" value="CategoryID int NOT NULL" style="shape=partialRectangle;overflow=hidden;connectable=0;fillColor=none;top=0;left=0;bottom=0;right=0;align=left;spacingLeft=6;fontStyle=5;" vertex="1" parent="17"><mxGeometry x="30" width="220" height="30" as="geometry"/></mxCell><mxCell id="20" value="" style="shape=partialRectangle;collapsible=0;dropTarget=0;pointerEvents=0;fillColor=none;points=[[0,0.5],[1,0.5]];portConstraint=eastwest;top=0;left=0;right=0;bottom=0;" vertex="1" parent="16"><mxGeometry y="80" width="250" height="55" as="geometry"/></mxCell><mxCell id="21" value="" style="shape=partialRectangle;overflow=hidden;connectable=0;fillColor=none;top=0;left=0;bottom=0;right=0;" vertex="1" parent="20"><mxGeometry width="30" height="55" as="geometry"/></mxCell><mxCell id="22" value="CategoryType varchar(30)&#10;CategoryPrice decimal&#10;CategorySeasonalPrice decimal" style="shape=partialRectangle;overflow=hidden;connectable=0;fillColor=none;top=0;left=0;bottom=0;right=0;align=left;spacingLeft=6;" vertex="1" parent="20"><mxGeometry x="30" width="220" height="55" as="geometry"/></mxCell><mxCell id="23" value="Camper" style="shape=table;startSize=50;container=1;collapsible=1;childLayout=tableLayout;fixedRows=1;rowLines=0;fontStyle=1;align=center;resizeLast=1;" vertex="1" parent="1"><mxGeometry x="1350" y="80" width="250" height="220" as="geometry"/></mxCell><mxCell id="24" value="" style="shape=partialRectangle;collapsible=0;dropTarget=0;pointerEvents=0;fillColor=none;points=[[0,0.5],[1,0.5]];portConstraint=eastwest;top=0;left=0;right=0;bottom=1;" vertex="1" parent="23"><mxGeometry y="50" width="250" height="30" as="geometry"/></mxCell><mxCell id="25" value="PK" style="shape=partialRectangle;overflow=hidden;connectable=0;fillColor=none;top=0;left=0;bottom=0;right=0;fontStyle=1;" vertex="1" parent="24"><mxGeometry width="30" height="30" as="geometry"/></mxCell><mxCell id="26" value="CamperID int NOT NULL " style="shape=partialRectangle;overflow=hidden;connectable=0;fillColor=none;top=0;left=0;bottom=0;right=0;align=left;spacingLeft=6;fontStyle=5;" vertex="1" parent="24"><mxGeometry x="30" width="220" height="30" as="geometry"/></mxCell><mxCell id="27" value="" style="shape=partialRectangle;collapsible=0;dropTarget=0;pointerEvents=0;fillColor=none;points=[[0,0.5],[1,0.5]];portConstraint=eastwest;top=0;left=0;right=0;bottom=0;" vertex="1" parent="23"><mxGeometry y="80" width="250" height="70" as="geometry"/></mxCell><mxCell id="28" value="FK1&#10;FK2&#10;&#10;" style="shape=partialRectangle;overflow=hidden;connectable=0;fillColor=none;top=0;left=0;bottom=0;right=0;" vertex="1" parent="27"><mxGeometry width="30" height="70" as="geometry"/></mxCell><mxCell id="29" value="CamperType varchar(30)&#10;CategoryID int&#10;CamperRegisterYear (int)&#10;FullTankStatu varchar(10)" style="shape=partialRectangle;overflow=hidden;connectable=0;fillColor=none;top=0;left=0;bottom=0;right=0;align=left;spacingLeft=6;" vertex="1" parent="27"><mxGeometry x="30" width="220" height="70" as="geometry"/></mxCell><mxCell id="30" value="Discount" style="shape=table;startSize=30;container=1;collapsible=1;childLayout=tableLayout;fixedRows=1;rowLines=0;fontStyle=1;align=center;resizeLast=1;" vertex="1" parent="1"><mxGeometry x="600" y="620" width="250" height="190" as="geometry"/></mxCell><mxCell id="31" value="" style="shape=partialRectangle;collapsible=0;dropTarget=0;pointerEvents=0;fillColor=none;points=[[0,0.5],[1,0.5]];portConstraint=eastwest;top=0;left=0;right=0;bottom=1;" vertex="1" parent="30"><mxGeometry y="30" width="250" height="30" as="geometry"/></mxCell><mxCell id="32" value="PK" style="shape=partialRectangle;overflow=hidden;connectable=0;fillColor=none;top=0;left=0;bottom=0;right=0;fontStyle=1;" vertex="1" parent="31"><mxGeometry width="30" height="30" as="geometry"/></mxCell><mxCell id="33" value="DiscountID" style="shape=partialRectangle;overflow=hidden;connectable=0;fillColor=none;top=0;left=0;bottom=0;right=0;align=left;spacingLeft=6;fontStyle=5;" vertex="1" parent="31"><mxGeometry x="30" width="220" height="30" as="geometry"/></mxCell><mxCell id="34" value="" style="shape=partialRectangle;collapsible=0;dropTarget=0;pointerEvents=0;fillColor=none;points=[[0,0.5],[1,0.5]];portConstraint=eastwest;top=0;left=0;right=0;bottom=0;" vertex="1" parent="30"><mxGeometry y="60" width="250" height="90" as="geometry"/></mxCell><mxCell id="35" value="&#10;FK" style="shape=partialRectangle;overflow=hidden;connectable=0;fillColor=none;top=0;left=0;bottom=0;right=0;" vertex="1" parent="34"><mxGeometry width="30" height="90" as="geometry"/></mxCell><mxCell id="36" value="DiscountType varchar(30)&#10;DiscountAmount decimal" style="shape=partialRectangle;overflow=hidden;connectable=0;fillColor=none;top=0;left=0;bottom=0;right=0;align=left;spacingLeft=6;" vertex="1" parent="34"><mxGeometry x="30" width="220" height="90" as="geometry"/></mxCell><mxCell id="37" value="" style="shape=partialRectangle;collapsible=0;dropTarget=0;pointerEvents=0;fillColor=none;points=[[0,0.5],[1,0.5]];portConstraint=eastwest;top=0;left=0;right=0;bottom=0;" vertex="1" parent="30"><mxGeometry y="150" width="250" height="30" as="geometry"/></mxCell><mxCell id="38" value="" style="shape=partialRectangle;overflow=hidden;connectable=0;fillColor=none;top=0;left=0;bottom=0;right=0;" vertex="1" parent="37"><mxGeometry width="30" height="30" as="geometry"/></mxCell><mxCell id="39" value="" style="shape=partialRectangle;overflow=hidden;connectable=0;fillColor=none;top=0;left=0;bottom=0;right=0;align=left;spacingLeft=6;" vertex="1" parent="37"><mxGeometry x="30" width="220" height="30" as="geometry"/></mxCell><mxCell id="40" value="CamperType" style="shape=table;startSize=50;container=1;collapsible=1;childLayout=tableLayout;fixedRows=1;rowLines=0;fontStyle=1;align=center;resizeLast=1;" vertex="1" parent="1"><mxGeometry x="1000" y="350" width="260" height="170" as="geometry"/></mxCell><mxCell id="41" value="" style="shape=partialRectangle;collapsible=0;dropTarget=0;pointerEvents=0;fillColor=none;points=[[0,0.5],[1,0.5]];portConstraint=eastwest;top=0;left=0;right=0;bottom=1;" vertex="1" parent="40"><mxGeometry y="50" width="260" height="30" as="geometry"/></mxCell><mxCell id="42" value="PK" style="shape=partialRectangle;overflow=hidden;connectable=0;fillColor=none;top=0;left=0;bottom=0;right=0;fontStyle=1;" vertex="1" parent="41"><mxGeometry width="30" height="30" as="geometry"/></mxCell><mxCell id="43" value="CamperType_varchar(30) NOT NULL " style="shape=partialRectangle;overflow=hidden;connectable=0;fillColor=none;top=0;left=0;bottom=0;right=0;align=left;spacingLeft=6;fontStyle=5;" vertex="1" parent="41"><mxGeometry x="30" width="230" height="30" as="geometry"/></mxCell><mxCell id="44" value="" style="shape=partialRectangle;collapsible=0;dropTarget=0;pointerEvents=0;fillColor=none;points=[[0,0.5],[1,0.5]];portConstraint=eastwest;top=0;left=0;right=0;bottom=0;" vertex="1" parent="40"><mxGeometry y="80" width="260" height="90" as="geometry"/></mxCell><mxCell id="45" value="" style="shape=partialRectangle;overflow=hidden;connectable=0;fillColor=none;top=0;left=0;bottom=0;right=0;" vertex="1" parent="44"><mxGeometry width="30" height="90" as="geometry"/></mxCell><mxCell id="46" value="KitchenFacilities varchar(100)&#10;No.of bed int&#10;HeatingFacility int&#10;SpaceAvailable int&#10;" style="shape=partialRectangle;overflow=hidden;connectable=0;fillColor=none;top=0;left=0;bottom=0;right=0;align=left;spacingLeft=6;" vertex="1" parent="44"><mxGeometry x="30" width="230" height="90" as="geometry"/></mxCell><mxCell id="47" style="edgeStyle=orthogonalEdgeStyle;rounded=0;orthogonalLoop=1;jettySize=auto;html=1;startArrow=classic;startFill=1;endArrow=none;endFill=0;" edge="1" parent="1" source="61" target="24"><mxGeometry relative="1" as="geometry"><mxPoint x="1110" y="150" as="targetPoint"/><Array as="points"><mxPoint x="570" y="200"/><mxPoint x="570" y="330"/><mxPoint x="1090" y="330"/><mxPoint x="1090" y="145"/></Array></mxGeometry></mxCell><mxCell id="48" style="edgeStyle=elbowEdgeStyle;rounded=0;orthogonalLoop=1;jettySize=auto;html=1;exitX=1;exitY=0.5;exitDx=0;exitDy=0;" edge="1" parent="1" source="41" target="23"><mxGeometry relative="1" as="geometry"><mxPoint x="1020" y="210" as="targetPoint"/><Array as="points"><mxPoint x="1270" y="170"/><mxPoint x="1350" y="170"/><mxPoint x="1310" y="170"/><mxPoint x="1270" y="310"/><mxPoint x="1060" y="170"/><mxPoint x="1010" y="370"/></Array></mxGeometry></mxCell><mxCell id="49" style="edgeStyle=elbowEdgeStyle;rounded=0;orthogonalLoop=1;jettySize=auto;html=1;" edge="1" parent="1" target="27"><mxGeometry relative="1" as="geometry"><mxPoint x="1360" y="415" as="sourcePoint"/><mxPoint x="1085" y="190" as="targetPoint"/><Array as="points"><mxPoint x="1300" y="190"/><mxPoint x="1370" y="190"/><mxPoint x="1330" y="180"/><mxPoint x="1290" y="250"/><mxPoint x="1190" y="320"/></Array></mxGeometry></mxCell><mxCell id="50" style="edgeStyle=elbowEdgeStyle;rounded=0;orthogonalLoop=1;jettySize=auto;html=1;startArrow=classic;startFill=1;endArrow=none;endFill=0;" edge="1" parent="1"><mxGeometry relative="1" as="geometry"><Array as="points"><mxPoint x="540" y="457"/><mxPoint x="540" y="467"/><mxPoint x="540" y="277"/><mxPoint x="580" y="467"/><mxPoint x="540" y="477"/><mxPoint x="540" y="487"/><mxPoint x="540" y="477"/><mxPoint x="500" y="297"/></Array><mxPoint x="600" y="457" as="sourcePoint"/><mxPoint x="770" y="122" as="targetPoint"/></mxGeometry></mxCell><mxCell id="51" style="edgeStyle=elbowEdgeStyle;rounded=0;orthogonalLoop=1;jettySize=auto;html=1;" edge="1" parent="1" source="3" target="61"><mxGeometry relative="1" as="geometry"><Array as="points"><mxPoint x="560" y="180"/><mxPoint x="560" y="200"/><mxPoint x="530" y="330"/></Array></mxGeometry></mxCell><mxCell id="52" style="edgeStyle=elbowEdgeStyle;rounded=0;orthogonalLoop=1;jettySize=auto;html=1;" edge="1" parent="1"><mxGeometry relative="1" as="geometry"><Array as="points"><mxPoint x="400" y="476"/><mxPoint x="340" y="476"/><mxPoint x="520" y="476"/><mxPoint x="520" y="496"/><mxPoint x="580" y="496"/><mxPoint x="570" y="606"/></Array><mxPoint x="460" y="471" as="sourcePoint"/><mxPoint x="600" y="471" as="targetPoint"/></mxGeometry></mxCell><mxCell id="53" style="edgeStyle=orthogonalEdgeStyle;rounded=0;orthogonalLoop=1;jettySize=auto;html=1;" edge="1" parent="1" source="10" target="61"><mxGeometry relative="1" as="geometry"><Array as="points"><mxPoint x="465" y="125"/><mxPoint x="465" y="170"/></Array></mxGeometry></mxCell><mxCell id="54" style="edgeStyle=orthogonalEdgeStyle;rounded=0;orthogonalLoop=1;jettySize=auto;html=1;entryX=1;entryY=0.5;entryDx=0;entryDy=0;startArrow=none;startFill=0;endArrow=classic;endFill=1;" edge="1" parent="1" source="65" target="6"><mxGeometry relative="1" as="geometry"><Array as="points"><mxPoint x="960" y="595"/><mxPoint x="960" y="500"/><mxPoint x="850" y="500"/></Array></mxGeometry></mxCell><mxCell id="55" style="edgeStyle=orthogonalEdgeStyle;rounded=0;orthogonalLoop=1;jettySize=auto;html=1;entryX=1;entryY=0.64;entryDx=0;entryDy=0;entryPerimeter=0;startArrow=none;startFill=0;endArrow=classic;endFill=1;" edge="1" parent="1" source="75" target="6"><mxGeometry relative="1" as="geometry"><Array as="points"><mxPoint x="1425" y="770"/><mxPoint x="940" y="770"/><mxPoint x="940" y="520"/><mxPoint x="850" y="520"/></Array></mxGeometry></mxCell><mxCell id="56" style="edgeStyle=orthogonalEdgeStyle;rounded=0;orthogonalLoop=1;jettySize=auto;html=1;entryX=-0.002;entryY=0.672;entryDx=0;entryDy=0;entryPerimeter=0;startArrow=none;startFill=0;endArrow=classic;endFill=1;" edge="1" parent="1"><mxGeometry relative="1" as="geometry"><Array as="points"><mxPoint x="540" y="903"/><mxPoint x="540" y="528"/><mxPoint x="600" y="528"/></Array><mxPoint x="610" y="903" as="sourcePoint"/><mxPoint x="599.5" y="532" as="targetPoint"/></mxGeometry></mxCell><mxCell id="57" value="Booking/Reservation" style="shape=table;startSize=30;container=1;collapsible=1;childLayout=tableLayout;fixedRows=1;rowLines=0;fontStyle=1;align=center;resizeLast=1;" vertex="1" parent="1"><mxGeometry x="770" y="80" width="250" height="200" as="geometry"/></mxCell><mxCell id="58" value="" style="shape=partialRectangle;collapsible=0;dropTarget=0;pointerEvents=0;fillColor=none;points=[[0,0.5],[1,0.5]];portConstraint=eastwest;top=0;left=0;right=0;bottom=1;" vertex="1" parent="57"><mxGeometry y="30" width="250" height="30" as="geometry"/></mxCell><mxCell id="59" value="PK" style="shape=partialRectangle;overflow=hidden;connectable=0;fillColor=none;top=0;left=0;bottom=0;right=0;fontStyle=1;" vertex="1" parent="58"><mxGeometry width="30" height="30" as="geometry"/></mxCell><mxCell id="60" value="OrderID int NOT NULL" style="shape=partialRectangle;overflow=hidden;connectable=0;fillColor=none;top=0;left=0;bottom=0;right=0;align=left;spacingLeft=6;fontStyle=5;" vertex="1" parent="58"><mxGeometry x="30" width="220" height="30" as="geometry"/></mxCell><mxCell id="61" value="" style="shape=partialRectangle;collapsible=0;dropTarget=0;pointerEvents=0;fillColor=none;points=[[0,0.5],[1,0.5]];portConstraint=eastwest;top=0;left=0;right=0;bottom=0;" vertex="1" parent="57"><mxGeometry y="60" width="250" height="140" as="geometry"/></mxCell><mxCell id="62" value="&#10;FK1&#10;FK2&#10;FK3&#10;&#10;&#10;&#10;&#10;" style="shape=partialRectangle;overflow=hidden;connectable=0;fillColor=none;top=0;left=0;bottom=0;right=0;" vertex="1" parent="61"><mxGeometry width="30" height="140" as="geometry"/></mxCell><mxCell id="63" value="ClientID int &#10;PaymentID int&#10;CampersID int&#10;RentalsAmount decimal&#10;RentalsPeriodStart date&#10;RentalsPeriodEnd date&#10;" style="shape=partialRectangle;overflow=hidden;connectable=0;fillColor=none;top=0;left=0;bottom=0;right=0;align=left;spacingLeft=6;" vertex="1" parent="61"><mxGeometry x="30" width="220" height="140" as="geometry"/></mxCell><mxCell id="64" value="Deposit" style="shape=table;startSize=30;container=1;collapsible=1;childLayout=tableLayout;fixedRows=1;rowLines=0;fontStyle=1;align=center;resizeLast=1;" vertex="1" parent="1"><mxGeometry x="1300" y="550" width="250" height="190" as="geometry"/></mxCell><mxCell id="65" value="" style="shape=partialRectangle;collapsible=0;dropTarget=0;pointerEvents=0;fillColor=none;points=[[0,0.5],[1,0.5]];portConstraint=eastwest;top=0;left=0;right=0;bottom=1;" vertex="1" parent="64"><mxGeometry y="30" width="250" height="30" as="geometry"/></mxCell><mxCell id="66" value="PK" style="shape=partialRectangle;overflow=hidden;connectable=0;fillColor=none;top=0;left=0;bottom=0;right=0;fontStyle=1;" vertex="1" parent="65"><mxGeometry width="30" height="30" as="geometry"/></mxCell><mxCell id="67" value="DepositID int NOT NULL" style="shape=partialRectangle;overflow=hidden;connectable=0;fillColor=none;top=0;left=0;bottom=0;right=0;align=left;spacingLeft=6;fontStyle=5;" vertex="1" parent="65"><mxGeometry x="30" width="220" height="30" as="geometry"/></mxCell><mxCell id="68" value="" style="shape=partialRectangle;collapsible=0;dropTarget=0;pointerEvents=0;fillColor=none;points=[[0,0.5],[1,0.5]];portConstraint=eastwest;top=0;left=0;right=0;bottom=0;" vertex="1" parent="64"><mxGeometry y="60" width="250" height="90" as="geometry"/></mxCell><mxCell id="69" value="&#10;FK" style="shape=partialRectangle;overflow=hidden;connectable=0;fillColor=none;top=0;left=0;bottom=0;right=0;" vertex="1" parent="68"><mxGeometry width="30" height="90" as="geometry"/></mxCell><mxCell id="70" value="DepositPaid varchar(10)&#10;DepositAmount decimal&#10;BookingDate date&#10;DueDate date" style="shape=partialRectangle;overflow=hidden;connectable=0;fillColor=none;top=0;left=0;bottom=0;right=0;align=left;spacingLeft=6;" vertex="1" parent="68"><mxGeometry x="30" width="220" height="90" as="geometry"/></mxCell><mxCell id="71" value="" style="shape=partialRectangle;collapsible=0;dropTarget=0;pointerEvents=0;fillColor=none;points=[[0,0.5],[1,0.5]];portConstraint=eastwest;top=0;left=0;right=0;bottom=0;" vertex="1" parent="64"><mxGeometry y="150" width="250" height="30" as="geometry"/></mxCell><mxCell id="72" value="" style="shape=partialRectangle;overflow=hidden;connectable=0;fillColor=none;top=0;left=0;bottom=0;right=0;" vertex="1" parent="71"><mxGeometry width="30" height="30" as="geometry"/></mxCell><mxCell id="73" value="" style="shape=partialRectangle;overflow=hidden;connectable=0;fillColor=none;top=0;left=0;bottom=0;right=0;align=left;spacingLeft=6;" vertex="1" parent="71"><mxGeometry x="30" width="220" height="30" as="geometry"/></mxCell><mxCell id="74" value="RemainingAmount" style="shape=table;startSize=30;container=1;collapsible=1;childLayout=tableLayout;fixedRows=1;rowLines=0;fontStyle=1;align=center;resizeLast=1;" vertex="1" parent="1"><mxGeometry x="1300" y="810" width="250" height="190" as="geometry"/></mxCell><mxCell id="75" value="" style="shape=partialRectangle;collapsible=0;dropTarget=0;pointerEvents=0;fillColor=none;points=[[0,0.5],[1,0.5]];portConstraint=eastwest;top=0;left=0;right=0;bottom=1;" vertex="1" parent="74"><mxGeometry y="30" width="250" height="30" as="geometry"/></mxCell><mxCell id="76" value="PK" style="shape=partialRectangle;overflow=hidden;connectable=0;fillColor=none;top=0;left=0;bottom=0;right=0;fontStyle=1;" vertex="1" parent="75"><mxGeometry width="30" height="30" as="geometry"/></mxCell><mxCell id="77" value="RemainingID int NOT NULL" style="shape=partialRectangle;overflow=hidden;connectable=0;fillColor=none;top=0;left=0;bottom=0;right=0;align=left;spacingLeft=6;fontStyle=5;" vertex="1" parent="75"><mxGeometry x="30" width="220" height="30" as="geometry"/></mxCell><mxCell id="78" value="" style="shape=partialRectangle;collapsible=0;dropTarget=0;pointerEvents=0;fillColor=none;points=[[0,0.5],[1,0.5]];portConstraint=eastwest;top=0;left=0;right=0;bottom=0;" vertex="1" parent="74"><mxGeometry y="60" width="250" height="90" as="geometry"/></mxCell><mxCell id="79" value="FK1&#10;&#10;FK2&#10;" style="shape=partialRectangle;overflow=hidden;connectable=0;fillColor=none;top=0;left=0;bottom=0;right=0;" vertex="1" parent="78"><mxGeometry width="30" height="90" as="geometry"/></mxCell><mxCell id="80" value="DepositPaid varchar(10)&#10;RemainingAmount decimal&#10;RentalStartDate date&#10;RemainingDueDate date" style="shape=partialRectangle;overflow=hidden;connectable=0;fillColor=none;top=0;left=0;bottom=0;right=0;align=left;spacingLeft=6;" vertex="1" parent="78"><mxGeometry x="30" width="220" height="90" as="geometry"/></mxCell><mxCell id="81" value="" style="shape=partialRectangle;collapsible=0;dropTarget=0;pointerEvents=0;fillColor=none;points=[[0,0.5],[1,0.5]];portConstraint=eastwest;top=0;left=0;right=0;bottom=0;" vertex="1" parent="74"><mxGeometry y="150" width="250" height="30" as="geometry"/></mxCell><mxCell id="82" value="" style="shape=partialRectangle;overflow=hidden;connectable=0;fillColor=none;top=0;left=0;bottom=0;right=0;" vertex="1" parent="81"><mxGeometry width="30" height="30" as="geometry"/></mxCell><mxCell id="83" value="" style="shape=partialRectangle;overflow=hidden;connectable=0;fillColor=none;top=0;left=0;bottom=0;right=0;align=left;spacingLeft=6;" vertex="1" parent="81"><mxGeometry x="30" width="220" height="30" as="geometry"/></mxCell><mxCell id="84" value="Bank" style="shape=table;startSize=50;container=1;collapsible=1;childLayout=tableLayout;fixedRows=1;rowLines=0;fontStyle=1;align=center;resizeLast=1;" vertex="1" parent="1"><mxGeometry x="145" y="407" width="250" height="210" as="geometry"/></mxCell><mxCell id="85" value="" style="shape=partialRectangle;collapsible=0;dropTarget=0;pointerEvents=0;fillColor=none;points=[[0,0.5],[1,0.5]];portConstraint=eastwest;top=0;left=0;right=0;bottom=1;" vertex="1" parent="84"><mxGeometry y="50" width="250" height="30" as="geometry"/></mxCell><mxCell id="86" value="PK" style="shape=partialRectangle;overflow=hidden;connectable=0;fillColor=none;top=0;left=0;bottom=0;right=0;fontStyle=1;" vertex="1" parent="85"><mxGeometry width="30" height="30" as="geometry"/></mxCell><mxCell id="87" value="Bank_id int NOT NULL " style="shape=partialRectangle;overflow=hidden;connectable=0;fillColor=none;top=0;left=0;bottom=0;right=0;align=left;spacingLeft=6;fontStyle=5;" vertex="1" parent="85"><mxGeometry x="30" width="220" height="30" as="geometry"/></mxCell><mxCell id="88" value="" style="shape=partialRectangle;collapsible=0;dropTarget=0;pointerEvents=0;fillColor=none;points=[[0,0.5],[1,0.5]];portConstraint=eastwest;top=0;left=0;right=0;bottom=0;" vertex="1" parent="84"><mxGeometry y="80" width="250" height="80" as="geometry"/></mxCell><mxCell id="89" value="" style="shape=partialRectangle;overflow=hidden;connectable=0;fillColor=none;top=0;left=0;bottom=0;right=0;" vertex="1" parent="88"><mxGeometry width="30" height="80" as="geometry"/></mxCell><mxCell id="90" value="bankName&#10;???&#10;clientId(int)&#10;paymentId&#10;insurance&#10;" style="shape=partialRectangle;overflow=hidden;connectable=0;fillColor=none;top=0;left=0;bottom=0;right=0;align=left;spacingLeft=6;" vertex="1" parent="88"><mxGeometry x="30" width="220" height="80" as="geometry"/></mxCell><mxCell id="91" value="Invoice" style="shape=table;startSize=30;container=1;collapsible=1;childLayout=tableLayout;fixedRows=1;rowLines=0;fontStyle=1;align=center;resizeLast=1;" vertex="1" parent="1"><mxGeometry x="210" y="710" width="250" height="130" as="geometry"/></mxCell><mxCell id="92" value="" style="shape=partialRectangle;collapsible=0;dropTarget=0;pointerEvents=0;fillColor=none;points=[[0,0.5],[1,0.5]];portConstraint=eastwest;top=0;left=0;right=0;bottom=1;" vertex="1" parent="91"><mxGeometry y="30" width="250" height="30" as="geometry"/></mxCell><mxCell id="93" value="PK" style="shape=partialRectangle;overflow=hidden;connectable=0;fillColor=none;top=0;left=0;bottom=0;right=0;fontStyle=1;" vertex="1" parent="92"><mxGeometry width="30" height="30" as="geometry"/></mxCell><mxCell id="94" value="invoice_id int NOT NULL " style="shape=partialRectangle;overflow=hidden;connectable=0;fillColor=none;top=0;left=0;bottom=0;right=0;align=left;spacingLeft=6;fontStyle=5;" vertex="1" parent="92"><mxGeometry x="30" width="220" height="30" as="geometry"/></mxCell><mxCell id="95" value="" style="shape=partialRectangle;collapsible=0;dropTarget=0;pointerEvents=0;fillColor=none;points=[[0,0.5],[1,0.5]];portConstraint=eastwest;top=0;left=0;right=0;bottom=0;" vertex="1" parent="91"><mxGeometry y="60" width="250" height="30" as="geometry"/></mxCell><mxCell id="96" value="FK1" style="shape=partialRectangle;overflow=hidden;connectable=0;fillColor=none;top=0;left=0;bottom=0;right=0;" vertex="1" parent="95"><mxGeometry width="30" height="30" as="geometry"/></mxCell><mxCell id="97" value="payment_id int NOT NULL" style="shape=partialRectangle;overflow=hidden;connectable=0;fillColor=none;top=0;left=0;bottom=0;right=0;align=left;spacingLeft=6;" vertex="1" parent="95"><mxGeometry x="30" width="220" height="30" as="geometry"/></mxCell><mxCell id="98" value="" style="shape=partialRectangle;collapsible=0;dropTarget=0;pointerEvents=0;fillColor=none;points=[[0,0.5],[1,0.5]];portConstraint=eastwest;top=0;left=0;right=0;bottom=0;" vertex="1" parent="91"><mxGeometry y="90" width="250" height="30" as="geometry"/></mxCell><mxCell id="99" value="" style="shape=partialRectangle;overflow=hidden;connectable=0;fillColor=none;top=0;left=0;bottom=0;right=0;" vertex="1" parent="98"><mxGeometry width="30" height="30" as="geometry"/></mxCell><mxCell id="100" value="Invoice_due_date Date &#10;AmountDue (int)" style="shape=partialRectangle;overflow=hidden;connectable=0;fillColor=none;top=0;left=0;bottom=0;right=0;align=left;spacingLeft=6;" vertex="1" parent="98"><mxGeometry x="30" width="220" height="30" as="geometry"/></mxCell><mxCell id="101" style="edgeStyle=orthogonalEdgeStyle;rounded=0;orthogonalLoop=1;jettySize=auto;html=1;entryX=-0.002;entryY=0.288;entryDx=0;entryDy=0;entryPerimeter=0;" edge="1" parent="1" source="31" target="6"><mxGeometry relative="1" as="geometry"/></mxCell><mxCell id="102" style="edgeStyle=orthogonalEdgeStyle;rounded=0;orthogonalLoop=1;jettySize=auto;html=1;entryX=-0.005;entryY=0.715;entryDx=0;entryDy=0;entryPerimeter=0;" edge="1" parent="1" source="92" target="6"><mxGeometry relative="1" as="geometry"/></mxCell><mxCell id="103" value="Insurance" style="shape=table;startSize=50;container=1;collapsible=1;childLayout=tableLayout;fixedRows=1;rowLines=0;fontStyle=1;align=center;resizeLast=1;" vertex="1" parent="1"><mxGeometry x="600" y="840" width="250" height="170" as="geometry"/></mxCell><mxCell id="104" value="" style="shape=partialRectangle;collapsible=0;dropTarget=0;pointerEvents=0;fillColor=none;points=[[0,0.5],[1,0.5]];portConstraint=eastwest;top=0;left=0;right=0;bottom=1;" vertex="1" parent="103"><mxGeometry y="50" width="250" height="30" as="geometry"/></mxCell><mxCell id="105" value="PK" style="shape=partialRectangle;overflow=hidden;connectable=0;fillColor=none;top=0;left=0;bottom=0;right=0;fontStyle=1;" vertex="1" parent="104"><mxGeometry width="30" height="30" as="geometry"/></mxCell><mxCell id="106" value="insurance_id int NOT NULL " style="shape=partialRectangle;overflow=hidden;connectable=0;fillColor=none;top=0;left=0;bottom=0;right=0;align=left;spacingLeft=6;fontStyle=5;" vertex="1" parent="104"><mxGeometry x="30" width="220" height="30" as="geometry"/></mxCell><mxCell id="107" value="" style="shape=partialRectangle;collapsible=0;dropTarget=0;pointerEvents=0;fillColor=none;points=[[0,0.5],[1,0.5]];portConstraint=eastwest;top=0;left=0;right=0;bottom=0;" vertex="1" parent="103"><mxGeometry y="80" width="250" height="40" as="geometry"/></mxCell><mxCell id="108" value="" style="shape=partialRectangle;overflow=hidden;connectable=0;fillColor=none;top=0;left=0;bottom=0;right=0;" vertex="1" parent="107"><mxGeometry width="30" height="40" as="geometry"/></mxCell><mxCell id="109" value="insuranceType varchar(10)&#10;insuranceCovering varchar(100)" style="shape=partialRectangle;overflow=hidden;connectable=0;fillColor=none;top=0;left=0;bottom=0;right=0;align=left;spacingLeft=6;" vertex="1" parent="107"><mxGeometry x="30" width="220" height="40" as="geometry"/></mxCell></root></mxGraphModel></diagram></mxfile>